<?xml version="1.0" standalone="no"?>
<!DOCTYPE svg PUBLIC "-//W3C//DTD SVG 20010904//EN"
 "http://www.w3.org/TR/2001/REC-SVG-20010904/DTD/svg10.dtd">
<svg version="1.0" xmlns="http://www.w3.org/2000/svg"
 width="960.000000pt" height="960.000000pt" viewBox="0 0 960.000000 960.000000"
 preserveAspectRatio="xMidYMid meet">
<metadata>
Created by potrace 1.14, written by Peter Selinger 2001-2017
</metadata>
<g transform="translate(0.000000,960.000000) scale(0.100000,-0.100000)"
fill="#000000" stroke="none">
<path d="M3360 7250 c-21 -12 -189 -109 -225 -130 -16 -9 -106 -61 -200 -115
-93 -54 -190 -109 -215 -123 -25 -14 -47 -27 -49 -28 -2 -2 -3 -186 -4 -410
l0 -408 29 -23 c16 -12 32 -23 36 -23 4 0 40 -20 80 -43 40 -24 147 -87 238
-139 91 -53 185 -108 210 -122 25 -15 60 -34 78 -43 17 -9 32 -19 32 -22 0 -3
-76 -49 -168 -102 -302 -173 -527 -302 -531 -305 -4 -4 -4 -824 0 -828 2 -1
160 -92 351 -202 191 -109 348 -201 348 -204 0 -3 -17 -14 -38 -26 -30 -17
-246 -141 -480 -277 -26 -15 -77 -44 -114 -65 l-68 -37 0 -60 c-1 -33 -2 -218
-3 -412 l-2 -352 85 -49 c47 -27 101 -59 120 -70 19 -10 118 -68 220 -127 102
-59 209 -120 238 -137 l53 -29 42 24 c23 14 58 34 77 44 73 41 307 177 360
208 101 60 145 85 188 107 l42 22 0 408 c0 224 3 408 6 408 7 0 79 -41 354
-200 69 -40 141 -82 160 -93 19 -10 70 -39 112 -64 l78 -45 237 137 c131 76
254 146 273 157 145 83 191 111 196 120 4 6 7 190 6 409 -1 220 2 399 5 399 3
0 163 -90 354 -201 l349 -201 173 100 c94 54 253 145 352 202 99 57 182 104
184 106 4 4 4 824 0 828 -2 2 -107 62 -234 135 -126 73 -237 137 -245 142 -21
13 -108 62 -174 99 l-57 31 -105 -61 c-58 -33 -122 -70 -142 -82 -20 -11 -130
-74 -243 -139 -113 -66 -209 -119 -212 -119 -3 0 -6 145 -6 323 0 177 0 359 0
404 l-1 83 -37 23 c-21 13 -63 38 -93 54 -30 17 -117 68 -194 112 -76 45 -140
81 -141 81 -2 0 -32 17 -66 38 -35 22 -90 53 -122 71 l-58 32 -107 -61 c-59
-33 -114 -65 -122 -70 -23 -14 -282 -163 -305 -176 -11 -6 -55 -32 -97 -57
l-78 -46 0 409 0 410 -40 25 c-22 14 -42 25 -45 25 -3 0 -18 8 -33 19 -33 23
-587 341 -593 340 -2 0 -11 -4 -19 -9z m727 -1630 c1 -220 -2 -400 -5 -400 -3
0 -39 20 -81 44 -42 24 -94 54 -116 66 -22 12 -93 53 -157 91 -64 38 -121 69
-127 69 -6 0 -11 5 -11 10 0 6 -4 10 -9 10 -12 0 -191 103 -191 110 0 3 22 17
48 32 26 14 180 103 342 197 162 94 298 171 301 171 3 0 6 -180 6 -400z m703
-821 c0 -3 -15 -13 -32 -22 -18 -9 -51 -28 -73 -42 -22 -14 -47 -28 -55 -32
-8 -4 -51 -28 -95 -54 -44 -25 -138 -80 -210 -121 -71 -41 -154 -89 -182 -106
l-53 -31 0 408 0 409 350 -201 c192 -111 350 -205 350 -208z m720 1 l0 -409
-112 65 c-62 36 -120 69 -128 74 -41 24 -217 126 -230 133 -8 4 -37 21 -65 37
-27 17 -76 44 -107 62 -32 18 -58 35 -58 38 0 3 118 73 262 155 143 83 299
173 347 202 47 28 87 52 89 52 1 1 2 -183 2 -409z m-1422 -821 c0 -330 -3
-399 -14 -395 -7 3 -116 64 -241 137 -125 72 -276 159 -335 193 -59 33 -108
64 -108 67 0 3 10 11 23 17 12 6 45 24 72 40 28 17 93 54 145 84 52 30 174
101 270 156 96 56 178 102 182 102 3 0 6 -180 6 -401z"/>
</g>
</svg>
